<?xml version="1.0" standalone="no"?>
<!DOCTYPE svg PUBLIC "-//W3C//DTD SVG 20010904//EN"
 "http://www.w3.org/TR/2001/REC-SVG-20010904/DTD/svg10.dtd">
<svg version="1.0" xmlns="http://www.w3.org/2000/svg"
 width="1024.000000pt" height="1024.000000pt" viewBox="0 0 1024.000000 1024.000000"
 preserveAspectRatio="xMidYMid meet">
<metadata>
Created by potrace 1.14, written by Peter Selinger 2001-2017
</metadata>
<g transform="translate(0.000000,1024.000000) scale(0.100000,-0.100000)"
fill="#000000" stroke="none">
<path d="M5106 9257 c-10 -28 -24 -65 -31 -82 -7 -16 -39 -97 -70 -180 -30
-82 -62 -166 -70 -185 -7 -19 -27 -71 -44 -115 -60 -158 -153 -401 -176 -460
-20 -52 -109 -285 -257 -675 -22 -58 -43 -114 -48 -125 -5 -11 -52 -135 -105
-275 -52 -140 -100 -266 -106 -280 -6 -13 -119 -308 -251 -654 -132 -347 -244
-639 -250 -651 -10 -18 -90 -125 -113 -151 -5 -6 -21 -26 -35 -44 -14 -18
-152 -198 -308 -399 -155 -201 -306 -397 -335 -434 -28 -38 -57 -74 -62 -80
-6 -7 -35 -43 -64 -82 -30 -38 -118 -153 -197 -255 -79 -102 -196 -252 -260
-335 -63 -82 -124 -161 -134 -174 -33 -42 -125 -160 -237 -306 -209 -270 -350
-452 -515 -665 -92 -118 -168 -219 -170 -223 -2 -5 35 -24 82 -42 100 -40 630
-248 1060 -416 168 -66 319 -127 337 -135 17 -7 33 -14 36 -14 6 0 301 -114
412 -160 102 -41 199 -79 820 -321 127 -50 239 -94 250 -99 11 -5 159 -64 330
-130 170 -67 360 -141 422 -166 l113 -44 182 72 c101 40 185 73 188 74 8 1 43
15 65 25 11 4 142 56 290 114 149 58 401 157 560 220 160 62 407 159 550 215
143 56 269 106 280 110 20 10 336 134 825 324 151 59 289 113 305 120 17 8 53
22 80 32 28 10 61 24 75 31 14 7 31 13 38 13 7 0 20 4 30 10 9 5 100 42 202
82 102 40 187 76 190 79 4 4 -346 467 -370 489 -3 3 -25 32 -50 65 -25 33 -50
66 -57 75 -16 19 -191 246 -290 375 -42 55 -90 116 -105 135 -16 19 -32 40
-36 45 -14 18 -246 320 -259 335 -20 24 -166 215 -188 244 -11 15 -27 36 -35
45 -8 10 -26 33 -40 51 -14 18 -68 88 -120 156 -52 67 -138 177 -190 245 -52
68 -118 152 -146 188 -28 37 -136 176 -240 310 -294 379 -313 405 -314 417 0
10 -29 90 -51 139 -9 19 -39 98 -237 620 -33 88 -83 219 -110 290 -28 72 -109
285 -182 475 -72 190 -142 372 -155 405 -13 33 -55 146 -95 250 -39 105 -75
199 -80 210 -9 19 -210 547 -372 975 -39 102 -76 199 -83 215 -7 17 -19 48
-26 70 -22 69 -32 71 -53 12z"/>
</g>
</svg>
